{
  "accessors": [
    {
      "bufferView": 0,
      "byteOffset": 0,
      "componentType": 5125,
      "count": 2352,
      "type": "SCALAR"
    },
    {
      "bufferView": 1,
      "byteOffset": 0,
      "componentType": 5126,
      "count": 392,
      "max": [
        1.05894368275860430000e+00,
        1.00000000000000000000e+00,
        1.03239375374996740000e+00
      ],
      "min": [
        -1.00000000000000000000e+00,
        0.00000000000000000000e+00,
        -1.03239375374996740000e+00
      ],
      "type": "VEC3"
    },
    {
      "bufferView": 1,
      "byteOffset": 12,
      "componentType": 5126,
      "count": 392,
      "type": "VEC3"
    }
  ],
  "asset": {
    "generator": "Wings 3D 2.2.4",
    "version": "2.0"
  },
  "bufferViews": [
    {
      "buffer": 0,
      "byteLength": 9408,
      "byteOffset": 0
    },
    {
      "buffer": 0,
      "byteLength": 9408,
      "byteOffset": 9408,
      "byteStride": 24
    }
  ],
  "buffers": [
    {
      "byteLength": 18816,
      "uri": "couronne02.bin"
    }
  ],
  "materials": [
    {
      "doubleSided": true,
      "emissiveFactor": [
        0.00000000000000000000e+00,
        0.00000000000000000000e+00,
        0.00000000000000000000e+00
      ],
      "name": "default",
      "pbrMetallicRoughness": {
        "baseColorFactor": [
          7.89853807692307730000e-01,
          8.13333333333333350000e-01,
          6.94044444444444460000e-01,
          1.00000000000000000000e+00
        ],
        "metallicFactor": 1.00000000000000010000e-01,
        "roughnessFactor": 8.00000000000000040000e-01
      }
    }
  ],
  "meshes": [
    {
      "name": "Couronne",
      "primitives": [
        {
          "attributes": {
            "NORMAL": 2,
            "POSITION": 1
          },
          "indices": 0,
          "material": 0
        }
      ]
    }
  ],
  "nodes": [
    {
      "mesh": 0,
      "name": "Couronne"
    }
  ],
  "scene": 0,
  "scenes": [
    {
      "nodes": [
        0
      ]
    }
  ]
}